<svg width="15" height="16" viewBox="0 0 15 16" fill="none" xmlns="http://www.w3.org/2000/svg">
<path d="M5.15625 3V1C5.15625 0.867392 5.20564 0.740215 5.29355 0.646447C5.38145 0.552678 5.50068 0.5 5.625 0.5C5.74932 0.5 5.86855 0.552678 5.95646 0.646447C6.04437 0.740215 6.09375 0.867392 6.09375 1V3C6.09375 3.13261 6.04437 3.25979 5.95646 3.35355C5.86855 3.44732 5.74932 3.5 5.625 3.5C5.50068 3.5 5.38145 3.44732 5.29355 3.35355C5.20564 3.25979 5.15625 3.13261 5.15625 3ZM7.5 3.5C7.62432 3.5 7.74355 3.44732 7.83146 3.35355C7.91937 3.25979 7.96875 3.13261 7.96875 3V1C7.96875 0.867392 7.91937 0.740215 7.83146 0.646447C7.74355 0.552678 7.62432 0.5 7.5 0.5C7.37568 0.5 7.25645 0.552678 7.16855 0.646447C7.08064 0.740215 7.03125 0.867392 7.03125 1V3C7.03125 3.13261 7.08064 3.25979 7.16855 3.35355C7.25645 3.44732 7.37568 3.5 7.5 3.5ZM9.375 3.5C9.49932 3.5 9.61855 3.44732 9.70646 3.35355C9.79437 3.25979 9.84375 3.13261 9.84375 3V1C9.84375 0.867392 9.79437 0.740215 9.70646 0.646447C9.61855 0.552678 9.49932 0.5 9.375 0.5C9.25068 0.5 9.13145 0.552678 9.04355 0.646447C8.95564 0.740215 8.90625 0.867392 8.90625 1V3C8.90625 3.13261 8.95564 3.25979 9.04355 3.35355C9.13145 3.44732 9.25068 3.5 9.375 3.5ZM14.8125 6.4L13.125 7.75V11.5C13.125 12.0304 12.9275 12.5391 12.5758 12.9142C12.2242 13.2893 11.7473 13.5 11.25 13.5H3.75C3.25272 13.5 2.77581 13.2893 2.42418 12.9142C2.07255 12.5391 1.875 12.0304 1.875 11.5V7.75L0.187502 6.4C0.0880457 6.32044 0.0222946 6.20199 0.00471309 6.07071C-0.0128684 5.93944 0.0191598 5.80609 0.0937519 5.7C0.168344 5.59391 0.27939 5.52378 0.402461 5.50503C0.525531 5.48627 0.650546 5.52043 0.750002 5.6L1.875 6.5V5C1.875 4.86739 1.92439 4.74021 2.0123 4.64645C2.1002 4.55268 2.21943 4.5 2.34375 4.5H12.6563C12.7806 4.5 12.8998 4.55268 12.9877 4.64645C13.0756 4.74021 13.125 4.86739 13.125 5V6.5L14.25 5.6C14.3495 5.52043 14.4745 5.48627 14.5975 5.50503C14.7206 5.52378 14.8317 5.59391 14.9063 5.7C14.9808 5.80609 15.0129 5.93944 14.9953 6.07071C14.9777 6.20199 14.912 6.32044 14.8125 6.4ZM12.1875 5.5H2.8125V11.5C2.8125 11.7652 2.91127 12.0196 3.08709 12.2071C3.2629 12.3946 3.50136 12.5 3.75 12.5H11.25C11.4986 12.5 11.7371 12.3946 11.9129 12.2071C12.0887 12.0196 12.1875 11.7652 12.1875 11.5V5.5Z" fill="white"/>
</svg>
