<svg width="26" height="26" viewBox="0 0 26 26" fill="none" xmlns="http://www.w3.org/2000/svg">
<path d="M16.249 6.41406C16.6094 6.41406 16.9021 6.56603 17.165 6.7666C17.4164 6.9584 17.6942 7.23721 18.0176 7.56055L18.4385 7.98242C18.7617 8.30564 19.0406 8.58268 19.2324 8.83398C19.433 9.0969 19.585 9.38961 19.585 9.75C19.585 10.1104 19.433 10.4031 19.2324 10.666C19.0406 10.9173 18.7617 11.1944 18.4385 11.5176L10.4941 19.4619C10.3185 19.6376 10.1683 19.7943 9.97754 19.9023C9.78654 20.0105 9.57431 20.0588 9.33301 20.1191L6.3457 20.8662C6.18151 20.9073 6.00303 20.9532 5.85449 20.9678C5.69984 20.9829 5.43885 20.9796 5.22949 20.7705C5.02008 20.5611 5.01611 20.2993 5.03125 20.1445C5.04582 19.996 5.09179 19.8174 5.13281 19.6533L5.87988 16.666C5.94016 16.4249 5.98869 16.2133 6.09668 16.0225C6.20477 15.8316 6.36134 15.6806 6.53711 15.5049L14.4814 7.56055C14.8048 7.23721 15.0826 6.9584 15.334 6.7666C15.5968 6.56617 15.8889 6.41415 16.249 6.41406Z" stroke="white"/>
<path d="M13.541 8.125L17.8743 12.4583" stroke="white"/>
</svg>
