<svg width="34" height="34" viewBox="0 0 34 34" fill="none" xmlns="http://www.w3.org/2000/svg">
<circle cx="17.0007" cy="12.7507" r="5.66667" fill="#D3D2D3"/>
<circle cx="24.084" cy="12.75" r="4.25" fill="#D3D2D3"/>
<circle cx="9.91602" cy="12.75" r="4.25" fill="#D3D2D3"/>
<path d="M24.084 18.418C27.8143 18.418 29.139 22.4272 29.5664 24.4131C29.6907 24.9913 29.237 25.501 28.6455 25.501H24.8887C24.3177 23.3623 23.2137 20.9366 21.0781 19.5508C21.8461 18.8725 22.8285 18.418 24.084 18.418Z" fill="#D3D2D3"/>
<path fill-rule="evenodd" clip-rule="evenodd" d="M9.91708 18.418C11.1725 18.418 12.1549 18.8726 12.9229 19.5508C10.7875 20.9366 9.68336 23.3624 9.11239 25.501H5.35555C4.76413 25.5009 4.31049 24.9913 4.43466 24.4131C4.86206 22.4272 6.187 18.4182 9.91708 18.418Z" fill="#D3D2D3"/>
<path d="M16.9993 19.834C22.5719 19.834 23.7604 25.0948 24.014 27.3389C24.0759 27.8877 23.635 28.334 23.0827 28.334H10.916C10.3637 28.334 9.92275 27.8877 9.98474 27.3389C10.2382 25.0948 11.4268 19.834 16.9993 19.834Z" fill="#D3D2D3"/>
</svg>
