<svg width="15" height="15" viewBox="0 0 15 15" fill="none" xmlns="http://www.w3.org/2000/svg">
<path d="M13.5862 1.88252C13.2804 1.57753 12.8661 1.40625 12.4342 1.40625C12.0024 1.40625 11.5881 1.57753 11.2823 1.88252L1.07468 12.0937C1.01554 12.1528 0.97332 12.2268 0.952397 12.3078C0.931473 12.3888 0.93261 12.4739 0.955688 12.5543C0.978766 12.6347 1.02294 12.7075 1.08364 12.7651C1.14433 12.8226 1.21933 12.8629 1.30085 12.8817C1.99637 13.043 2.70798 13.1245 3.42194 13.1249C5.35261 13.1249 7.28444 12.5272 9.10261 11.3536C10.9635 10.1524 12.0434 8.78604 12.0909 8.72803C12.1615 8.63787 12.1967 8.52498 12.1898 8.41066C12.1829 8.29634 12.1344 8.18851 12.0534 8.10752L10.8587 6.91396L13.5862 4.18584C13.8909 3.87999 14.0619 3.46588 14.0619 3.03418C14.0619 2.60248 13.8909 2.18837 13.5862 1.88252ZM11.0801 8.46318C10.3367 9.27347 9.49272 9.98549 8.56882 10.5819C6.55144 11.8769 4.47077 12.3937 2.37136 12.1229L8.55476 5.93721L11.0801 8.46318ZM12.9235 3.52373L10.1954 6.25186L9.21804 5.27334L11.9456 2.54521C12.0753 2.41553 12.2511 2.34268 12.4345 2.34268C12.6179 2.34268 12.7938 2.41553 12.9235 2.54521C13.0532 2.6749 13.126 2.85078 13.126 3.03418C13.126 3.21758 13.0532 3.39346 12.9235 3.52314V3.52373Z" fill="white"/>
</svg>
