<svg width="14" height="14" viewBox="0 0 14 14" fill="none" xmlns="http://www.w3.org/2000/svg">
<rect x="2" y="6" width="10" height="5" fill="white"/>
<path d="M11.8126 5.68693H5.58317L11.4845 4.12888C11.5404 4.11416 11.5928 4.08853 11.6387 4.05346C11.6846 4.01838 11.7231 3.97457 11.7519 3.92454C11.7808 3.87451 11.7995 3.81926 11.8069 3.76197C11.8143 3.70468 11.8103 3.64649 11.7951 3.59076L11.3489 1.95013C11.2875 1.72941 11.1416 1.54176 10.9428 1.42784C10.744 1.31391 10.5083 1.28288 10.2868 1.34146L1.95849 3.5399C1.84759 3.56868 1.74356 3.6193 1.65247 3.68879C1.56139 3.75828 1.48508 3.84524 1.42802 3.94459C1.37063 4.04271 1.33356 4.15137 1.319 4.2641C1.30444 4.37684 1.31269 4.49135 1.34325 4.60084L1.75013 6.10037C1.75013 6.10802 1.75013 6.11623 1.75013 6.12443V10.9369C1.75013 11.169 1.84231 11.3916 2.00641 11.5556C2.1705 11.7197 2.39306 11.8119 2.62513 11.8119H11.3751C11.6072 11.8119 11.8297 11.7197 11.9938 11.5556C12.1579 11.3916 12.2501 11.169 12.2501 10.9369V6.12443C12.2501 6.0084 12.204 5.89712 12.122 5.81507C12.0399 5.73302 11.9287 5.68693 11.8126 5.68693ZM10.5089 2.18693L10.837 3.39388L9.59997 3.72201L8.06216 2.83388L10.5089 2.18693ZM6.86177 3.14943L8.39958 4.03755L6.37942 4.57076L4.84161 3.68373L6.86177 3.14943ZM2.51958 5.58959L2.19145 4.38209L3.64067 3.99927L5.17849 4.88849L2.51958 5.58959ZM11.3751 10.9369H2.62513V6.56193H11.3751V10.9369Z" fill="white"/>
</svg>
