<svg width="27" height="27" viewBox="0 0 27 27" fill="none" xmlns="http://www.w3.org/2000/svg">
<path d="M15 0C21.6274 0 27 5.37258 27 12C27 18.6274 21.6274 24 15 24C8.37258 24 3 18.6274 3 12C3 5.37258 8.37258 1.93283e-07 15 0ZM21.3643 5.63574C20.9739 5.24548 20.3407 5.24578 19.9502 5.63574C19.5599 6.02625 19.5598 6.65933 19.9502 7.0498C20.929 8.0287 21.5951 9.27706 21.8652 10.6348C22.1351 11.9923 21.9964 13.3999 21.4668 14.6787C20.937 15.9576 20.0396 17.0512 18.8887 17.8203C17.7376 18.5893 16.3843 19 15 19C13.6157 19 12.2624 18.5893 11.1113 17.8203C9.96031 17.0512 9.06303 15.9576 8.5332 14.6787C8.00354 13.3999 7.86485 11.9924 8.13477 10.6348C8.40488 9.27707 9.07099 8.02869 10.0498 7.0498C10.4401 6.65932 10.4401 6.02623 10.0498 5.63574C9.6593 5.24573 9.02613 5.24553 8.63574 5.63574C7.37723 6.89432 6.52014 8.4985 6.17285 10.2441C5.82568 11.9898 6.00446 13.7999 6.68555 15.4443C7.36676 17.0886 8.52017 18.4946 10 19.4834C11.48 20.4722 13.2201 21 15 21C16.7799 21 18.52 20.4722 20 19.4834C21.4798 18.4946 22.6333 17.0886 23.3145 15.4443C23.9955 13.8 24.1743 11.9898 23.8271 10.2441C23.4799 8.49848 22.6228 6.89433 21.3643 5.63574ZM15 3C14.4478 3 14.0001 3.44783 14 4V8C14.0002 8.55213 14.4478 9 15 9C15.5521 8.99996 15.9998 8.55211 16 8V4C15.9999 3.44785 15.5522 3.00004 15 3Z" fill="white"/>
</svg>
