<svg width="47" height="47" viewBox="0 0 47 47" fill="none" xmlns="http://www.w3.org/2000/svg">
<path d="M23.5 31.834V31.334V31.334V31.834ZM30.3486 34.1592L30.653 33.7625L30.653 33.7625L30.3486 34.1592ZM34.2734 39.8545L34.5489 40.2718L34.8591 40.067L34.7524 39.7109L34.2734 39.8545ZM23.5 43.084V43.584V43.584V43.084ZM12.7256 39.8545L12.2466 39.7109L12.1399 40.067L12.4501 40.2718L12.7256 39.8545ZM16.6514 34.1592L16.347 33.7625L16.347 33.7625L16.6514 34.1592ZM23.5 3.91797V3.41797V3.41797V3.91797ZM43.083 23.501H43.583V23.501H43.083ZM35.1338 39.2539L34.6589 39.4103L34.8752 40.0672L35.4311 39.6559L35.1338 39.2539ZM30.957 33.3652L31.2614 32.9686L31.2614 32.9685L30.957 33.3652ZM23.5 30.834V30.334V30.334V30.834ZM16.043 33.3652L15.7386 32.9685L15.7386 32.9686L16.043 33.3652ZM11.8652 39.2539L11.5679 39.6559L12.1239 40.0672L12.3402 39.4103L11.8652 39.2539ZM3.91699 23.501H3.41699V23.501H3.91699ZM23.5 31.834V32.334C25.8663 32.334 28.1668 33.1153 30.0443 34.5559L30.3486 34.1592L30.653 33.7625C28.601 32.188 26.0866 31.334 23.5 31.334V31.834ZM30.3486 34.1592L30.0442 34.5558C31.8374 35.9318 33.1468 37.8374 33.7945 39.9981L34.2734 39.8545L34.7524 39.7109C34.0446 37.35 32.6136 35.267 30.653 33.7625L30.3486 34.1592ZM34.2734 39.8545L33.998 39.4372C30.9862 41.4253 27.3795 42.584 23.5 42.584V43.084V43.584C27.5817 43.584 31.379 42.3643 34.5489 40.2718L34.2734 39.8545ZM23.5 43.084V42.584C19.6201 42.584 16.0129 41.4256 13.0011 39.4372L12.7256 39.8545L12.4501 40.2718C15.6202 42.3646 19.418 43.584 23.5 43.584V43.084ZM12.7256 39.8545L13.2045 39.9981C13.8522 37.8374 15.1625 35.932 16.9558 34.5558L16.6514 34.1592L16.347 33.7625C14.3864 35.267 12.9544 37.3498 12.2466 39.7109L12.7256 39.8545ZM16.6514 34.1592L16.9557 34.5559C18.8332 33.1153 21.1337 32.334 23.5 32.334V31.834V31.334C20.9134 31.334 18.399 32.188 16.347 33.7625L16.6514 34.1592ZM23.5 3.91797V4.41797C34.0394 4.41797 42.583 12.9615 42.583 23.501H43.083H43.583C43.583 12.4093 34.5917 3.41797 23.5 3.41797V3.91797ZM43.083 23.501H42.583C42.583 29.7943 39.5367 35.375 34.8364 38.8519L35.1338 39.2539L35.4311 39.6559C40.3752 35.9986 43.583 30.1249 43.583 23.501H43.083ZM35.1338 39.2539L35.6087 39.0975C34.8094 36.67 33.2982 34.5314 31.2614 32.9686L30.957 33.3652L30.6527 33.7619C32.5293 35.2019 33.9221 37.1726 34.6589 39.4103L35.1338 39.2539ZM30.957 33.3652L31.2614 32.9685C29.0348 31.2602 26.3065 30.334 23.5 30.334V30.834V31.334C26.0864 31.334 28.6007 32.1875 30.6527 33.7619L30.957 33.3652ZM23.5 30.834V30.334C20.6935 30.334 17.9652 31.2602 15.7386 32.9685L16.043 33.3652L16.3473 33.7619C18.3993 32.1875 20.9136 31.334 23.5 31.334V30.834ZM16.043 33.3652L15.7386 32.9686C13.7018 34.5314 12.1897 36.6698 11.3903 39.0975L11.8652 39.2539L12.3402 39.4103C13.0769 37.1726 14.4706 35.202 16.3473 33.7619L16.043 33.3652ZM11.8652 39.2539L12.1626 38.8519C7.46276 35.375 4.41699 29.794 4.41699 23.501H3.91699H3.41699C3.41699 30.1246 6.62415 35.9985 11.5679 39.6559L11.8652 39.2539ZM3.91699 23.501H4.41699C4.41699 12.9615 12.9606 4.41797 23.5 4.41797V3.91797V3.41797C12.4083 3.41797 3.41699 12.4093 3.41699 23.501H3.91699ZM23.5 10.751V10.251C19.4269 10.251 16.125 13.5529 16.125 17.626H16.625H17.125C17.125 14.1052 19.9792 11.251 23.5 11.251V10.751ZM16.625 17.626H16.125C16.125 21.6991 19.4269 25.001 23.5 25.001V24.501V24.001C19.9792 24.001 17.125 21.1468 17.125 17.626H16.625ZM23.5 24.501V25.001C27.5731 25.001 30.875 21.6991 30.875 17.626H30.375H29.875C29.875 21.1468 27.0208 24.001 23.5 24.001V24.501ZM30.375 17.626H30.875C30.875 13.5529 27.5731 10.251 23.5 10.251V10.751V11.251C27.0208 11.251 29.875 14.1052 29.875 17.626H30.375Z" fill="#FBDCA6"/>
</svg>
