<svg width="24" height="24" viewBox="0 0 24 24" fill="none" xmlns="http://www.w3.org/2000/svg">
<path d="M9.39453 10.5156C9.14447 10.9536 9 11.4596 9 12C9 13.6569 10.3431 15 12 15C12.5402 15 13.0456 14.8544 13.4834 14.6045L15.7861 16.9072C14.6351 17.5542 13.3528 17.9999 12 18C8.36427 18 5.23161 14.7896 3.81152 13.0654C3.42351 12.5943 3.22949 12.3587 3.22949 12C3.22949 11.6413 3.42351 11.4057 3.81152 10.9346C4.48505 10.1168 5.54551 8.96669 6.86035 7.98145L9.39453 10.5156ZM12 6C15.6356 6.00014 18.7674 9.21046 20.1875 10.9346C20.5757 11.4058 20.7705 11.6412 20.7705 12C20.7705 12.3588 20.5756 12.5942 20.1875 13.0654C19.7131 13.6413 19.0457 14.3808 18.2344 15.1133L14.9961 11.875C14.9322 10.3173 13.6818 9.0664 12.124 9.00293L9.57812 6.45703C10.3488 6.17272 11.1608 6 12 6Z" fill="white"/>
<path d="M5 2L21 18" stroke="white" stroke-width="2" stroke-linecap="round"/>
</svg>
