<svg width="28" height="28" viewBox="0 0 28 28" fill="none" xmlns="http://www.w3.org/2000/svg">
<g opacity="0.7">
<path d="M14 7C18.3655 7.00014 22.1086 10.9676 23.6924 12.9287C24.079 13.4075 24.2725 13.6467 24.2725 14C24.2725 14.3533 24.079 14.5925 23.6924 15.0713C22.1086 17.0324 18.3655 20.9999 14 21C9.63435 21 5.89043 17.0325 4.30664 15.0713C3.92015 14.5927 3.72656 14.3533 3.72656 14C3.72656 13.6467 3.92015 13.4073 4.30664 12.9287C5.89043 10.9675 9.63435 7 14 7ZM14 10.5C12.067 10.5 10.5 12.067 10.5 14C10.5 15.933 12.067 17.5 14 17.5C15.9329 17.4999 17.5 15.9329 17.5 14C17.5 12.0671 15.9329 10.5001 14 10.5Z" fill="white"/>
</g>
</svg>
